<svg id="be0f5b8f-df53-4d0b-8b39-72a9c4f1ac4e" data-name="Layer 1" xmlns="http://www.w3.org/2000/svg" viewBox="0 0 425 425"><title>avatar</title><path d="M202.08,415.26c-6.41-.73-12.82-1.38-19.22-2.2A198.19,198.19,0,0,1,115,391.48c-33.86-17.89-60.83-43.34-81.32-75.7-3-4.73-3.31-9-.77-14,18.57-37.31,47.9-61.18,88.33-71.34,3.2-.8,6.47-1.25,9.7-1.94,6.37-1.37,11.85.41,17.09,4.11,20.89,14.75,44.24,21.33,69.72,20.21,19.35-.85,38-5.54,53.57-17,11.67-8.55,22.9-8.19,35.42-4.7,35.42,9.86,62.14,31,80.92,62.37,8,13.39,8.26,13.6-.33,26.55-21.16,31.88-48.62,56.79-83.06,73.74a204.53,204.53,0,0,1-79.74,21,19.12,19.12,0,0,0-2.69.54Z" fill="#cfcaec"/><path d="M212.37,220.34c-57.69,0-105.44-47.83-105.28-105.44S154.54,9.91,212.23,9.74,317.61,57.14,317.69,115,270.11,220.35,212.37,220.34Z" fill="#cfcaec"/></svg>