<svg id="e1954fd4-f44d-4410-969a-b8fe2b30fbb3" data-name="Layer 1" xmlns="http://www.w3.org/2000/svg" viewBox="0 0 425 425"><title>Untitled-1</title><path d="M367.72,425H57.26a4.24,4.24,0,0,0-1-.6c-30.95-6.32-48.37-27.54-48.37-59q0-137.17,0-274.33a70.15,70.15,0,0,1,.87-12.81C14,50.35,36.63,31.6,65,31.51c7,0,14,0,21.51,0,0-5.07,0-9.73,0-14.4C86.61,7.08,93.22,0,102.36,0S117.92,7.06,118,17.24c0,4.66,0,9.31,0,14H307V26.8c0-3.6-.05-7.2,0-10.79.17-9,6.61-15.76,15.17-16S338,6.33,338.41,15.44c.26,5.2,0,10.43,0,16.07,8.06,0,15.64,0,23.21,0a52.21,52.21,0,0,1,26.52,7.13c19.41,11.46,28.94,28.64,28.95,51.13q0,85.28,0,170.57c0,35.56.07,71.11,0,106.66-.07,27.11-16.39,49-41.45,56C373,423.72,370.37,424.33,367.72,425Zm18-259.48H39.52c-.09,1.34-.23,2.42-.23,3.5q0,99.17,0,198.33c0,15.79,10.64,26.13,26.45,26.13q146.66,0,293.33,0a32,32,0,0,0,6.19-.43c12.76-2.54,20.39-12.57,20.4-26.83q0-98.13,0-196.25Zm-.28-31.94c0-16.39.48-32.42-.16-48.4A22.28,22.28,0,0,0,366,63.79c-8.9-1.19-18.08-.24-27.47-.24,0,4.82.1,9.64,0,14.46-.22,9.46-6.9,16.39-15.71,16.46S307.1,87.41,307,77.74c0-4.8,0-9.59,0-14.45H118v4.34c0,3.6,0,7.2,0,10.79-.18,9.08-6.94,16-15.59,16-8.45,0-15.38-6.6-15.8-15.49-.25-5.19,0-10.41,0-16h-20c-17,0-27.2,10.12-27.26,27,0,13.14,0,26.28,0,39.42v4.18Z" fill="#212121"/></svg>