<svg id="b366df5d-a59a-4d50-b1a1-5f4feee445ff" data-name="Layer 1" xmlns="http://www.w3.org/2000/svg" viewBox="0 0 425 425"><title>Untitled-1</title><path d="M383.27,211.65c-1.59-11.76-2.89-24-4.94-36-2.19-12.92,4.24-23.75,16.44-26.43,11.37-2.49,22.55,4.79,25,17.16,15.67,80.78-6.35,149.62-67,205.27-32,29.38-70.49,46.39-113.64,51.43-61,7.12-115.77-8.73-163-48.2-40.37-33.74-65.49-77-73-129.06C-7.89,170.15,15,105.39,71.76,54,115.52,14.32,168-2.55,226.87.66a199.24,199.24,0,0,1,54.88,11.06c11.77,4.1,17.61,15.76,13.8,27s-15.43,17.15-27.3,13.19c-22.15-7.37-44.75-10.6-68.06-8.76-45.4,3.58-83.63,22.19-113.94,56C53.08,136.2,39.18,180,43.54,229.46c6.59,74.73,65.77,138.06,140.05,150.34C275.5,395,360.73,336.43,379.09,245.22,381.27,234.38,381.87,223.23,383.27,211.65Z" fill="#212121"/><path d="M191.7,226.2c1.83-2.54,2.8-4.35,4.19-5.74q84.92-85,169.86-170c5.77-5.77,12.23-8.95,20.52-7.4a21.09,21.09,0,0,1,13,33.62,48,48,0,0,1-4.39,4.74Q302,174.32,209.13,267.19c-12.15,12.15-23.46,12.14-35.65-.05Q143.41,237.07,113.33,207c-6.42-6.44-8.68-14.08-5.62-22.76,2.91-8.25,9-12.95,17.69-14,7.26-.88,13.23,1.94,18.31,7.05Q165.3,199,187,220.57C188.25,221.85,189.32,223.35,191.7,226.2Z" fill="#212121"/></svg>