<svg id="b775778e-7c24-4d1f-8445-4b0b15db6436" data-name="Layer 1" xmlns="http://www.w3.org/2000/svg" viewBox="0 0 425 425"><title>Untitled-1</title><path d="M424.32,79.84c-.4,24.87-8.18,44.34-23.95,60.22-33.24,33.49-66.77,66.7-100.14,100.07Q223.35,317,146.45,393.88a19.55,19.55,0,0,1-9.13,4.94Q79.24,411.67,21.05,424.07c-12.67,2.73-22.68-8-19.9-20.65,8.42-38.4,16.53-76.88,25-115.27a20.52,20.52,0,0,1,5.09-9.61Q132.67,176.87,234.36,75.47c18.38-18.34,35.88-37.69,55.41-54.71,47.71-41.59,121-15.71,133.06,46.37C423.8,72.1,424,77.22,424.32,79.84Zm-174,26a15.67,15.67,0,0,0-1.21,1Q154.25,201.71,59.43,296.64a12,12,0,0,0-2.93,5.66C53,318,49.67,333.76,46.29,349.5c-2.63,12.2-5.26,24.39-8,36.95a19.53,19.53,0,0,0,2.46-.13c26.86-5.75,53.73-11.4,80.52-17.4a19.52,19.52,0,0,0,8.94-5.1q92.88-92.55,185.56-185.29a26.58,26.58,0,0,1,4.3-3ZM342.84,150c11.7-11.34,23.7-22.57,35.25-34.26,18.47-18.72,18-49.76-.7-68.33S327.82,28.7,309,47.16c-10.65,10.45-21.19,21-31.76,31.55-1,1-2,2.2-2.69,3Z" fill="#212121"/></svg>