<svg id="ac28dcba-116b-4c2d-97b4-f156ed5b6060" data-name="Layer 1" xmlns="http://www.w3.org/2000/svg" viewBox="0 0 425 425"><title>Untitled-1</title><path d="M425,216.66c-2,3.55-3.56,7.5-6.16,10.57-4.5,5.32-10.86,6.61-17.64,6.61q-80.71-.08-161.43,0h-6v5.55c0,53-.19,106,.14,158.94.08,13.22-4.3,22.47-17.29,26.7h-8.3c-.2-.18-.38-.44-.61-.53-11.83-4.19-16.54-10.76-16.54-23.26q0-80.7,0-161.39v-6H185.7q-81.1,0-162.22,0c-12.19,0-20.5-6.16-23-16.86A21.07,21.07,0,0,1,17.45,191.7a47.37,47.37,0,0,1,7.44-.48q80.28,0,160.56,0h5.74v-5.75q0-80.89,0-161.8c0-12.41,6.25-20.81,17.11-23.19,11.35-2.48,23.07,5.37,25,16.85a47.67,47.67,0,0,1,.51,7.84q0,80.07,0,160.15v5.9h5.6c53,0,105.93.19,158.9-.13,13.2-.08,22.48,4.27,26.69,17.29Z" fill="#212121"/></svg>