<svg id="f70b4ce4-246d-44c8-9e6a-b1406aa17a2e" data-name="Layer 1" xmlns="http://www.w3.org/2000/svg" viewBox="0 0 425 425"><title>Untitled-1</title><path d="M214.59,0C300-.13,376.16,61.86,392.39,148.38c11.53,61.45-4.19,116.23-47.38,161.71-32.86,34.61-67.18,67.83-101.07,101.44-18,17.86-44.77,18-62.8.16-34.36-34-69-67.79-102.39-102.73C-3.1,223.33,19,81.11,122.57,23.54,150.51,8,180.43.3,214.59,0Zm-2.08,28.46c-12.4,1.85-25,2.74-37.17,5.69C61.4,61.76,19.42,204.56,100.56,289.13c32.92,34.32,67.07,67.46,100.72,101.08,6.91,6.89,15.45,6.91,22.39,0,33.34-33.28,67.11-66.15,99.76-100.08,34.33-35.69,47.9-79,41.47-128C354.94,86.36,289.43,29.7,212.51,28.46Z" fill="#212121"/><path d="M300.83,171.55a88.54,88.54,0,0,1-88.29,88.62c-48.67.05-88.54-39.76-88.58-88.44a88.44,88.44,0,0,1,176.87-.18Zm-88.6-58.79a59,59,0,0,0-58.78,58.86c0,32.45,26.8,59.17,59.21,59a58.95,58.95,0,0,0-.43-117.89Z" fill="#212121"/></svg>