<svg id="a681f78f-7262-4159-97bb-2e01e3026892" data-name="Layer 1" xmlns="http://www.w3.org/2000/svg" viewBox="0 0 393 116"><title>triply-logo-full-light</title><path d="M354.82,59.72c4-8.08,7.69-15.33,11.15-22.68,1.12-2.4,2.42-3.54,5.22-3.43,4.93.19,9.88,0,15.42-.11-.86,2-1.38,3.32-2,4.61-11.62,23-23.33,46-34.83,69-1.49,3-3.25,4.09-6.5,3.91-4.25-.23-8.52,0-13.68.09,4.75-9.72,9-18.7,13.54-27.49a7.54,7.54,0,0,0-.19-8.22c-6.8-11.82-13.33-23.79-19.95-35.72-.86-1.56-1.65-3.16-2.83-5.41,6.9-.08,13.16-.32,19.4-.09,1.18,0,2.68,1.68,3.38,2.95,3.19,5.83,6.13,11.8,9.19,17.71C352.85,56.28,353.67,57.66,354.82,59.72Z" fill="#f5f5f5"/><path d="M109.71,28.66l-16.13.19L93.39,12l51.27-.6.19,16.62-15.65.19.71,60.69-19.49.23Z" fill="#f5f5f5"/><path d="M296,87.21l-1-83.12,17.53-.2,1,83.12Z" fill="#f5f5f5"/><path d="M214.21,88.26l-17.62.2L196,35.93l17.62-.21Z" fill="#f5f5f5"/><path d="M145.72,36.56l17.53-.2.61,52.25-17.53.2Z" fill="#f5f5f5"/><path d="M204.75,4.43a10.3,10.3,0,0,1,10.08,10.29c0,5.81-4.78,10.81-10.31,10.67A10.57,10.57,0,0,1,194.45,15,10.15,10.15,0,0,1,204.75,4.43Z" fill="#eafc5f"/><path d="M177.84,35.85a10.28,10.28,0,0,1,10.38,10.37,10.18,10.18,0,1,1-20.36.35C167.73,40.57,172,35.94,177.84,35.85Z" fill="#f5f5f5"/><path d="M278.76,41.59c-8.65-10-20.55-10.92-33.82-2.94-1.17-1.19-2.23-3.22-3.4-3.28-5.24-.3-10.5,0-15.72,0l.89,76.71,18-.21-.32-27.41c15.69,8.21,27.19,6.68,35.59-4.15C288.63,69.15,288.12,52.35,278.76,41.59ZM256.06,71.8A10.58,10.58,0,0,1,246,61.35,10.16,10.16,0,0,1,256.3,50.83a10.29,10.29,0,0,1,10.07,10.29C266.43,66.93,261.59,71.94,256.06,71.8Z" fill="#f5f5f5"/><path d="M27.68,68.66A14.64,14.64,0,0,1,34,88.16c-3.61,7.44-12.93,10.76-19.9,7.08a15.06,15.06,0,0,1-6.22-19.7A14.45,14.45,0,0,1,27.68,68.66Z" fill="#eafc5f"/><path d="M38.58,20.61a10.28,10.28,0,0,1,4.68,13.9,10.43,10.43,0,0,1-13.89,4.92,10.45,10.45,0,0,1-4.5-13.66C27.42,20.33,33.34,18.1,38.58,20.61Z" fill="#f5f5f5"/><path d="M67,49.1a10.28,10.28,0,0,1,4.44,13.69c-2.54,5.23-9.09,7.57-14,5a10.57,10.57,0,0,1-4.37-13.84A10.15,10.15,0,0,1,67,49.1Z" fill="#f5f5f5"/></svg>