<svg id="bf9c00b4-ca9f-4417-8e06-1974b9fc394a" data-name="Layer 1" xmlns="http://www.w3.org/2000/svg" viewBox="0 0 298 117"><title>triply-logo-text-light</title><path d="M263.38,61.41c4.09-8,7.87-15.24,11.41-22.55,1.16-2.38,2.47-3.51,5.27-3.37,4.93.25,9.88.07,15.42.07-.88,1.95-1.42,3.3-2.09,4.58C281.5,63,269.53,85.84,257.76,108.77c-1.52,3-3.29,4-6.54,3.83-4.25-.28-8.52-.07-13.68-.07,4.86-9.67,9.18-18.6,13.85-27.33A7.52,7.52,0,0,0,251.3,77c-6.66-11.9-13.05-24-19.53-35.95-.85-1.57-1.62-3.18-2.77-5.45,6.91,0,13.16-.16,19.4.14,1.18.06,2.67,1.72,3.34,3,3.13,5.87,6,11.87,9,17.81C261.45,58,262.25,59.33,263.38,61.41Z" fill="#f5f5f5"/><path d="M18.65,27.5H2.52V10.68H53.8V27.3H38.15V88H18.65Z" fill="#f5f5f5"/><path d="M204.28,88.21V5.09h17.53V88.21Z" fill="#f5f5f5"/><path d="M122.45,88.31H104.83V35.77h17.62Z" fill="#f5f5f5"/><path d="M54.57,35.82H72.1V88.07H54.57Z" fill="#f5f5f5"/><path d="M114,4.38a10.28,10.28,0,0,1,10,10.4c0,5.81-4.9,10.76-10.43,10.55a10.57,10.57,0,0,1-9.95-10.56A10.15,10.15,0,0,1,114,4.38Z" fill="#eafc5f"/><path d="M86.7,35.48A10.27,10.27,0,0,1,97,46a10.18,10.18,0,1,1-20.36.12C76.53,40.08,80.89,35.5,86.7,35.48Z" fill="#f5f5f5"/><path d="M187.54,42.39c-8.53-10-20.42-11.15-33.79-3.33-1.15-1.2-2.19-3.24-3.36-3.32-5.23-.36-10.5-.16-15.72-.16v76.73h18V84.89c15.59,8.39,27.1,7,35.63-3.73C197.09,70.07,196.77,53.27,187.54,42.39Zm-23,29.94a10.57,10.57,0,0,1-10-10.56A10.15,10.15,0,0,1,165,51.38a10.28,10.28,0,0,1,9.95,10.4C174.91,67.59,170,72.54,164.49,72.33Z" fill="#f5f5f5"/></svg>