<svg id="b565d7b9-c45b-4dbe-95a9-86a5515e234f" data-name="Layer 1" xmlns="http://www.w3.org/2000/svg" viewBox="0 0 90 90"><title>triply-logo-icon-dark</title><path d="M33.26,55.5a14.64,14.64,0,0,1,6.1,19.57c-3.69,7.4-13.06,10.61-20,6.84a15.06,15.06,0,0,1-6-19.76A14.46,14.46,0,0,1,33.26,55.5Z" fill="#eafc5f"/><path d="M44.72,7.58a10.28,10.28,0,0,1,4.52,14,10.44,10.44,0,0,1-14,4.75A10.44,10.44,0,0,1,31,12.58C33.57,7.17,39.51,5,44.72,7.58Z" fill="#cfcaec"/><path d="M72.78,36.4a10.27,10.27,0,0,1,4.28,13.74c-2.59,5.2-9.17,7.46-14,4.81a10.57,10.57,0,0,1-4.21-13.88A10.15,10.15,0,0,1,72.78,36.4Z" fill="#cfcaec"/></svg>