<svg id="b153ad30-22b2-4e15-8bea-ae6916bedd27" data-name="Layer 1" xmlns="http://www.w3.org/2000/svg" viewBox="0 0 90 90"><title>triply-logo-icon-light</title><path d="M33.25,55.5A14.64,14.64,0,0,1,39.57,75C36,82.44,26.63,85.75,19.67,82.07a15,15,0,0,1-6.22-19.69A14.44,14.44,0,0,1,33.25,55.5Z" fill="#eafc5f"/><path d="M44.15,7.44a10.27,10.27,0,0,1,4.67,13.91,10.44,10.44,0,0,1-13.89,4.92,10.45,10.45,0,0,1-4.49-13.66C33,7.17,38.91,4.94,44.15,7.44Z" fill="#f5f5f5"/><path d="M72.54,35.93A10.3,10.3,0,0,1,77,49.63c-2.54,5.23-9.09,7.56-14,5a10.57,10.57,0,0,1-4.38-13.83A10.16,10.16,0,0,1,72.54,35.93Z" fill="#f5f5f5"/></svg>